<svg width="139" height="152" viewBox="0 0 139 152" fill="none" xmlns="http://www.w3.org/2000/svg">
<path d="M0.5 38.296L69.282 0.57027L138.064 38.296V113.704L69.282 151.43L0.5 113.704V38.296Z" fill="#352F2F" fill-opacity="0.27" stroke="#0B73D3"/>
<path d="M16.3955 97.9849L12.3945 109H10.7592L15.3662 96.9141H16.4204L16.3955 97.9849ZM19.749 109L15.7397 97.9849L15.7148 96.9141H16.769L21.3925 109H19.749ZM19.5415 104.526V105.837H12.7514V104.526H19.5415ZM27.0344 101.745V112.453H25.4905V100.019H26.9016L27.0344 101.745ZM33.0857 104.435V104.609C33.0857 105.262 33.0082 105.868 32.8533 106.427C32.6983 106.98 32.4714 107.462 32.1726 107.871C31.8793 108.281 31.5168 108.599 31.0852 108.826C30.6536 109.053 30.1583 109.166 29.5994 109.166C29.0294 109.166 28.5258 109.072 28.0886 108.884C27.6514 108.696 27.2807 108.422 26.9763 108.062C26.6719 107.702 26.4285 107.271 26.2458 106.767C26.0688 106.264 25.947 105.696 25.8806 105.065V104.136C25.947 103.472 26.0715 102.877 26.2541 102.351C26.4368 101.825 26.6775 101.377 26.9763 101.006C27.2807 100.63 27.6487 100.345 28.0803 100.151C28.512 99.9521 29.01 99.8525 29.5745 99.8525C30.1389 99.8525 30.6397 99.9632 31.0769 100.185C31.5141 100.4 31.8821 100.71 32.1809 101.114C32.4797 101.518 32.7038 102.002 32.8533 102.567C33.0082 103.126 33.0857 103.748 33.0857 104.435ZM31.5417 104.609V104.435C31.5417 103.986 31.4947 103.566 31.4006 103.173C31.3066 102.774 31.1599 102.426 30.9607 102.127C30.767 101.823 30.518 101.585 30.2136 101.413C29.9093 101.236 29.5468 101.147 29.1262 101.147C28.7388 101.147 28.4013 101.214 28.1135 101.347C27.8313 101.479 27.5906 101.659 27.3913 101.886C27.1921 102.108 27.0289 102.362 26.9016 102.65C26.7799 102.932 26.6885 103.225 26.6277 103.53V105.68C26.7384 106.067 26.8933 106.432 27.0925 106.775C27.2917 107.113 27.5574 107.387 27.8894 107.597C28.2214 107.802 28.6392 107.904 29.1428 107.904C29.5579 107.904 29.9148 107.819 30.2136 107.647C30.518 107.47 30.767 107.229 30.9607 106.925C31.1599 106.62 31.3066 106.272 31.4006 105.879C31.4947 105.48 31.5417 105.057 31.5417 104.609ZM37.3579 104.609V104.418C37.3579 103.771 37.452 103.17 37.6402 102.617C37.8283 102.058 38.0995 101.574 38.4536 101.164C38.8078 100.749 39.2367 100.428 39.7403 100.201C40.2438 99.9688 40.8083 99.8525 41.4336 99.8525C42.0645 99.8525 42.6317 99.9688 43.1353 100.201C43.6444 100.428 44.076 100.749 44.4302 101.164C44.7899 101.574 45.0638 102.058 45.252 102.617C45.4401 103.17 45.5342 103.771 45.5342 104.418V104.609C45.5342 105.256 45.4401 105.857 45.252 106.41C45.0638 106.964 44.7899 107.448 44.4302 107.863C44.076 108.272 43.6472 108.593 43.1436 108.826C42.6455 109.053 42.0811 109.166 41.4502 109.166C40.8194 109.166 40.2521 109.053 39.7486 108.826C39.245 108.593 38.8133 108.272 38.4536 107.863C38.0995 107.448 37.8283 106.964 37.6402 106.41C37.452 105.857 37.3579 105.256 37.3579 104.609ZM38.8936 104.418V104.609C38.8936 105.057 38.9461 105.48 39.0513 105.879C39.1564 106.272 39.3141 106.62 39.5244 106.925C39.7403 107.229 40.0086 107.47 40.3296 107.647C40.6506 107.819 41.0241 107.904 41.4502 107.904C41.8708 107.904 42.2388 107.819 42.5542 107.647C42.8752 107.47 43.1408 107.229 43.3511 106.925C43.5614 106.62 43.7191 106.272 43.8242 105.879C43.9349 105.48 43.9903 105.057 43.9903 104.609V104.418C43.9903 103.975 43.9349 103.557 43.8242 103.165C43.7191 102.766 43.5586 102.415 43.3428 102.11C43.1325 101.8 42.8669 101.557 42.5459 101.38C42.2305 101.203 41.8597 101.114 41.4336 101.114C41.013 101.114 40.6423 101.203 40.3213 101.38C40.0059 101.557 39.7403 101.8 39.5244 102.11C39.3141 102.415 39.1564 102.766 39.0513 103.165C38.9461 103.557 38.8936 103.975 38.8936 104.418ZM51.8484 96.25V109H50.3045V96.25H51.8484ZM58.7022 96.25V109H57.1583V96.25H58.7022ZM63.4808 104.609V104.418C63.4808 103.771 63.5749 103.17 63.763 102.617C63.9512 102.058 64.2224 101.574 64.5765 101.164C64.9307 100.749 65.3596 100.428 65.8631 100.201C66.3667 99.9688 66.9312 99.8525 67.5565 99.8525C68.1874 99.8525 68.7546 99.9688 69.2582 100.201C69.7673 100.428 70.1989 100.749 70.5531 101.164C70.9128 101.574 71.1867 102.058 71.3749 102.617C71.563 103.17 71.6571 103.771 71.6571 104.418V104.609C71.6571 105.256 71.563 105.857 71.3749 106.41C71.1867 106.964 70.9128 107.448 70.5531 107.863C70.1989 108.272 69.77 108.593 69.2665 108.826C68.7684 109.053 68.204 109.166 67.5731 109.166C66.9422 109.166 66.375 109.053 65.8714 108.826C65.3679 108.593 64.9362 108.272 64.5765 107.863C64.2224 107.448 63.9512 106.964 63.763 106.41C63.5749 105.857 63.4808 105.256 63.4808 104.609ZM65.0165 104.418V104.609C65.0165 105.057 65.069 105.48 65.1742 105.879C65.2793 106.272 65.437 106.62 65.6473 106.925C65.8631 107.229 66.1315 107.47 66.4525 107.647C66.7735 107.819 67.147 107.904 67.5731 107.904C67.9937 107.904 68.3617 107.819 68.6771 107.647C68.9981 107.47 69.2637 107.229 69.474 106.925C69.6843 106.62 69.842 106.272 69.9471 105.879C70.0578 105.48 70.1131 105.057 70.1131 104.609V104.418C70.1131 103.975 70.0578 103.557 69.9471 103.165C69.842 102.766 69.6815 102.415 69.4657 102.11C69.2554 101.8 68.9898 101.557 68.6688 101.38C68.3534 101.203 67.9826 101.114 67.5565 101.114C67.1359 101.114 66.7652 101.203 66.4442 101.38C66.1288 101.557 65.8631 101.8 65.6473 102.11C65.437 102.415 65.2793 102.766 65.1742 103.165C65.069 103.557 65.0165 103.975 65.0165 104.418ZM83.8317 105.157H85.4254C85.3424 105.92 85.1238 106.604 84.7697 107.207C84.4155 107.81 83.9147 108.289 83.2672 108.643C82.6198 108.992 81.8118 109.166 80.8434 109.166C80.1351 109.166 79.4904 109.033 78.9093 108.768C78.3338 108.502 77.8385 108.126 77.4235 107.639C77.0084 107.146 76.6875 106.557 76.4606 105.871C76.2392 105.179 76.1286 104.41 76.1286 103.563V102.359C76.1286 101.513 76.2392 100.746 76.4606 100.06C76.6875 99.3683 77.0112 98.7762 77.4318 98.2837C77.8579 97.7912 78.3698 97.4121 78.9674 97.1465C79.5651 96.8809 80.2374 96.748 80.9845 96.748C81.8976 96.748 82.6696 96.9196 83.3004 97.2627C83.9313 97.6058 84.421 98.0817 84.7697 98.6904C85.1238 99.2936 85.3424 99.9937 85.4254 100.791H83.8317C83.7542 100.226 83.6103 99.7419 83.4 99.3379C83.1898 98.9284 82.8909 98.613 82.5036 98.3916C82.1162 98.1702 81.6098 98.0596 80.9845 98.0596C80.4477 98.0596 79.9746 98.1619 79.5651 98.3667C79.1611 98.5715 78.8208 98.862 78.5441 99.2383C78.2729 99.6146 78.0682 100.066 77.9298 100.591C77.7915 101.117 77.7223 101.701 77.7223 102.343V103.563C77.7223 104.155 77.7832 104.711 77.9049 105.231C78.0322 105.752 78.2231 106.208 78.4777 106.601C78.7322 106.994 79.056 107.304 79.4489 107.531C79.8418 107.752 80.3066 107.863 80.8434 107.863C81.5241 107.863 82.0664 107.755 82.4704 107.539C82.8743 107.323 83.1787 107.013 83.3834 106.609C83.5937 106.205 83.7431 105.721 83.8317 105.157ZM91.7646 96.25V109H90.2206V96.25H91.7646ZM98.6184 100.019V109H97.0744V100.019H98.6184ZM96.9582 97.6362C96.9582 97.3872 97.0329 97.1769 97.1823 97.0054C97.3373 96.8338 97.5642 96.748 97.863 96.748C98.1563 96.748 98.3804 96.8338 98.5354 97.0054C98.6958 97.1769 98.7761 97.3872 98.7761 97.6362C98.7761 97.8742 98.6958 98.0789 98.5354 98.2505C98.3804 98.4165 98.1563 98.4995 97.863 98.4995C97.5642 98.4995 97.3373 98.4165 97.1823 98.2505C97.0329 98.0789 96.9582 97.8742 96.9582 97.6362ZM107.531 109.166C106.905 109.166 106.338 109.061 105.829 108.851C105.326 108.635 104.891 108.333 104.526 107.946C104.166 107.558 103.889 107.099 103.696 106.568C103.502 106.037 103.405 105.456 103.405 104.825V104.476C103.405 103.746 103.513 103.095 103.729 102.525C103.945 101.95 104.238 101.463 104.609 101.064C104.98 100.666 105.4 100.364 105.871 100.16C106.341 99.9549 106.828 99.8525 107.332 99.8525C107.973 99.8525 108.527 99.9632 108.992 100.185C109.462 100.406 109.847 100.716 110.145 101.114C110.444 101.507 110.666 101.972 110.81 102.509C110.953 103.04 111.025 103.621 111.025 104.252V104.941H104.318V103.688H109.49V103.571C109.468 103.173 109.385 102.785 109.241 102.409C109.102 102.033 108.881 101.723 108.577 101.479C108.272 101.236 107.857 101.114 107.332 101.114C106.983 101.114 106.662 101.189 106.369 101.338C106.075 101.482 105.824 101.698 105.613 101.986C105.403 102.274 105.24 102.625 105.124 103.04C105.007 103.455 104.949 103.934 104.949 104.476V104.825C104.949 105.251 105.007 105.652 105.124 106.028C105.245 106.399 105.42 106.726 105.646 107.008C105.879 107.29 106.158 107.511 106.485 107.672C106.817 107.832 107.193 107.913 107.614 107.913C108.156 107.913 108.615 107.802 108.992 107.581C109.368 107.359 109.697 107.063 109.979 106.692L110.909 107.431C110.715 107.724 110.469 108.004 110.17 108.27C109.872 108.535 109.504 108.751 109.066 108.917C108.635 109.083 108.123 109.166 107.531 109.166ZM117.074 101.936V109H115.538V100.019H116.991L117.074 101.936ZM116.709 104.169L116.07 104.144C116.075 103.53 116.166 102.963 116.344 102.442C116.521 101.917 116.77 101.46 117.091 101.073C117.412 100.685 117.793 100.387 118.236 100.176C118.684 99.9604 119.18 99.8525 119.722 99.8525C120.165 99.8525 120.563 99.9134 120.917 100.035C121.271 100.151 121.573 100.34 121.822 100.6C122.077 100.86 122.27 101.197 122.403 101.612C122.536 102.022 122.602 102.523 122.602 103.115V109H121.058V103.098C121.058 102.628 120.989 102.251 120.851 101.969C120.712 101.681 120.511 101.474 120.245 101.347C119.979 101.214 119.653 101.147 119.265 101.147C118.884 101.147 118.535 101.228 118.219 101.388C117.91 101.549 117.641 101.77 117.414 102.052C117.193 102.334 117.019 102.658 116.891 103.023C116.77 103.383 116.709 103.765 116.709 104.169ZM131.415 100.019V101.197H126.559V100.019H131.415ZM128.203 97.8354H129.738V106.775C129.738 107.08 129.785 107.309 129.879 107.464C129.974 107.619 130.095 107.722 130.245 107.771C130.394 107.821 130.555 107.846 130.726 107.846C130.853 107.846 130.986 107.835 131.125 107.813C131.268 107.785 131.376 107.763 131.448 107.747L131.457 109C131.335 109.039 131.174 109.075 130.975 109.108C130.781 109.147 130.546 109.166 130.27 109.166C129.893 109.166 129.547 109.091 129.232 108.942C128.917 108.792 128.665 108.543 128.477 108.195C128.294 107.841 128.203 107.365 128.203 106.767V97.8354Z" fill="url(#paint0_linear_802_252)"/>
<g clip-path="url(#clip0_802_252)">
<path d="M76.0497 66.0509H82.0937L72.4453 41.0106H65.7627L56.1143 66.0509H62.1588L63.7356 61.8094H72.852L71.2017 57.1159H65.1992L69.1039 46.3416L76.0497 66.0509ZM95.9804 47.5117C95.7656 46.7382 94.9667 46.2839 94.1899 46.4996C93.4162 46.7144 92.9628 47.5159 93.1776 48.2896C93.7842 50.4738 94.0915 52.7316 94.0915 55C94.0915 68.8355 82.8355 80.0911 69 80.0911C55.1645 80.0911 43.9087 68.8355 43.9087 55C43.9087 41.1643 55.1645 29.9085 69 29.9085C74.861 29.9085 80.5321 31.9906 85.0079 35.6957C84.8338 36.1114 84.7371 36.5675 84.7371 37.0461C84.7371 38.9787 86.3038 40.5454 88.2364 40.5454C90.1691 40.5454 91.7358 38.9787 91.7358 37.0461C91.7358 35.1134 90.1691 33.5467 88.2364 33.5467C87.8643 33.5467 87.5062 33.606 87.1698 33.7137C82.1298 29.4185 75.6747 27 69 27C53.5608 27 41 39.5606 41 55C41 70.4392 53.5608 82.9998 69 82.9998C84.4392 82.9998 97 70.4392 97 55C97 52.4686 96.6572 49.9491 95.9804 47.5117Z" fill="url(#paint1_linear_802_252)"/>
</g>
<defs>
<linearGradient id="paint0_linear_802_252" x1="71.2822" y1="92.5265" x2="71.2822" y2="112.138" gradientUnits="userSpaceOnUse">
<stop stop-color="#5190FE"/>
<stop offset="1" stop-color="#E28AFF"/>
</linearGradient>
<linearGradient id="paint1_linear_802_252" x1="69" y1="25.6741" x2="69" y2="80.5856" gradientUnits="userSpaceOnUse">
<stop stop-color="#5190FE"/>
<stop offset="1" stop-color="#E28AFF"/>
</linearGradient>
<clipPath id="clip0_802_252">
<rect width="56" height="56" fill="white" transform="translate(41 27)"/>
</clipPath>
</defs>
</svg>
