<svg width="139" height="152" viewBox="0 0 139 152" fill="none" xmlns="http://www.w3.org/2000/svg">
<path d="M0.5 38.296L69.282 0.57027L138.064 38.296V113.704L69.282 151.43L0.5 113.704V38.296Z" fill="#352F2F" fill-opacity="0.27" stroke="#0B73D3"/>
<path d="M43.1678 109H40.6443L40.6609 107.697H43.1678C44.0311 107.697 44.7505 107.517 45.326 107.157C45.9015 106.792 46.3331 106.283 46.6209 105.63C46.9142 104.971 47.0608 104.202 47.0608 103.322V102.583C47.0608 101.892 46.9778 101.278 46.8118 100.741C46.6458 100.198 46.4023 99.7419 46.0813 99.3711C45.7604 98.9948 45.3675 98.7098 44.9026 98.5161C44.4433 98.3224 43.9148 98.2256 43.3172 98.2256H40.5945V96.9141H43.3172C44.1085 96.9141 44.8307 97.0469 45.4837 97.3125C46.1367 97.5726 46.6984 97.9517 47.1688 98.4497C47.6447 98.9422 48.0099 99.5399 48.2645 100.243C48.519 100.94 48.6463 101.726 48.6463 102.6V103.322C48.6463 104.197 48.519 104.985 48.2645 105.688C48.0099 106.385 47.6419 106.98 47.1604 107.473C46.6845 107.965 46.109 108.344 45.4339 108.61C44.7643 108.87 44.0089 109 43.1678 109ZM41.4993 96.9141V109H39.8973V96.9141H41.4993ZM53.1344 104.609V104.418C53.1344 103.771 53.2284 103.17 53.4166 102.617C53.6047 102.058 53.8759 101.574 54.2301 101.164C54.5842 100.749 55.0131 100.428 55.5167 100.201C56.0203 99.9688 56.5847 99.8525 57.21 99.8525C57.8409 99.8525 58.4081 99.9688 58.9117 100.201C59.4208 100.428 59.8525 100.749 60.2066 101.164C60.5663 101.574 60.8402 102.058 61.0284 102.617C61.2166 103.17 61.3106 103.771 61.3106 104.418V104.609C61.3106 105.256 61.2166 105.857 61.0284 106.41C60.8402 106.964 60.5663 107.448 60.2066 107.863C59.8525 108.272 59.4236 108.593 58.92 108.826C58.422 109.053 57.8575 109.166 57.2266 109.166C56.5958 109.166 56.0286 109.053 55.525 108.826C55.0214 108.593 54.5898 108.272 54.2301 107.863C53.8759 107.448 53.6047 106.964 53.4166 106.41C53.2284 105.857 53.1344 105.256 53.1344 104.609ZM54.67 104.418V104.609C54.67 105.057 54.7226 105.48 54.8277 105.879C54.9329 106.272 55.0906 106.62 55.3009 106.925C55.5167 107.229 55.7851 107.47 56.106 107.647C56.427 107.819 56.8005 107.904 57.2266 107.904C57.6472 107.904 58.0152 107.819 58.3306 107.647C58.6516 107.47 58.9172 107.229 59.1275 106.925C59.3378 106.62 59.4955 106.272 59.6007 105.879C59.7113 105.48 59.7667 105.057 59.7667 104.609V104.418C59.7667 103.975 59.7113 103.557 59.6007 103.165C59.4955 102.766 59.335 102.415 59.1192 102.11C58.9089 101.8 58.6433 101.557 58.3223 101.38C58.0069 101.203 57.6361 101.114 57.21 101.114C56.7895 101.114 56.4187 101.203 56.0977 101.38C55.7823 101.557 55.5167 101.8 55.3009 102.11C55.0906 102.415 54.9329 102.766 54.8277 103.165C54.7226 103.557 54.67 103.975 54.67 104.418ZM69.5506 107.904C69.9159 107.904 70.2534 107.83 70.5633 107.68C70.8732 107.531 71.1278 107.326 71.327 107.066C71.5262 106.8 71.6397 106.499 71.6673 106.161H73.1283C73.1006 106.692 72.9208 107.188 72.5887 107.647C72.2622 108.101 71.8334 108.469 71.3021 108.751C70.7709 109.028 70.187 109.166 69.5506 109.166C68.8755 109.166 68.2862 109.047 67.7826 108.809C67.2845 108.571 66.8695 108.245 66.5375 107.83C66.211 107.415 65.9647 106.939 65.7987 106.402C65.6382 105.86 65.558 105.287 65.558 104.684V104.335C65.558 103.732 65.6382 103.162 65.7987 102.625C65.9647 102.083 66.211 101.604 66.5375 101.189C66.8695 100.774 67.2845 100.447 67.7826 100.209C68.2862 99.9715 68.8755 99.8525 69.5506 99.8525C70.2534 99.8525 70.8677 99.9964 71.3934 100.284C71.9191 100.566 72.3314 100.954 72.6302 101.446C72.9346 101.933 73.1006 102.487 73.1283 103.106H71.6673C71.6397 102.736 71.5345 102.401 71.3519 102.102C71.1748 101.803 70.9313 101.565 70.6214 101.388C70.3171 101.206 69.9602 101.114 69.5506 101.114C69.0803 101.114 68.6846 101.208 68.3636 101.396C68.0482 101.579 67.7964 101.828 67.6083 102.144C67.4256 102.453 67.2928 102.799 67.2098 103.181C67.1324 103.557 67.0936 103.942 67.0936 104.335V104.684C67.0936 105.076 67.1324 105.464 67.2098 105.846C67.2873 106.228 67.4173 106.573 67.6 106.883C67.7881 107.193 68.0399 107.442 68.3553 107.63C68.6763 107.813 69.0747 107.904 69.5506 107.904ZM79.1188 96.25V109H77.5748V96.25H79.1188ZM84.6056 100.019L80.6876 104.21L78.4962 106.485L78.3717 104.85L79.9406 102.974L82.7296 100.019H84.6056ZM83.2028 109L79.9987 104.717L80.7955 103.347L85.0123 109H83.2028ZM92.4721 109.166C91.8468 109.166 91.2795 109.061 90.7704 108.851C90.2669 108.635 89.8324 108.333 89.4672 107.946C89.1075 107.558 88.8308 107.099 88.6371 106.568C88.4434 106.037 88.3466 105.456 88.3466 104.825V104.476C88.3466 103.746 88.4545 103.095 88.6703 102.525C88.8862 101.95 89.1794 101.463 89.5502 101.064C89.921 100.666 90.3416 100.364 90.8119 100.16C91.2823 99.9549 91.7693 99.8525 92.2729 99.8525C92.9148 99.8525 93.4682 99.9632 93.933 100.185C94.4034 100.406 94.788 100.716 95.0868 101.114C95.3857 101.507 95.607 101.972 95.7509 102.509C95.8948 103.04 95.9667 103.621 95.9667 104.252V104.941H89.2597V103.688H94.4311V103.571C94.4089 103.173 94.3259 102.785 94.1821 102.409C94.0437 102.033 93.8224 101.723 93.518 101.479C93.2136 101.236 92.7986 101.114 92.2729 101.114C91.9242 101.114 91.6033 101.189 91.31 101.338C91.0167 101.482 90.7649 101.698 90.5546 101.986C90.3443 102.274 90.1811 102.625 90.0649 103.04C89.9487 103.455 89.8905 103.934 89.8905 104.476V104.825C89.8905 105.251 89.9487 105.652 90.0649 106.028C90.1866 106.399 90.3609 106.726 90.5878 107.008C90.8202 107.29 91.0997 107.511 91.4262 107.672C91.7582 107.832 92.1345 107.913 92.5551 107.913C93.0974 107.913 93.5567 107.802 93.933 107.581C94.3093 107.359 94.6386 107.063 94.9208 106.692L95.8505 107.431C95.6568 107.724 95.4106 108.004 95.1117 108.27C94.8129 108.535 94.4449 108.751 94.0077 108.917C93.5761 109.083 93.0642 109.166 92.4721 109.166ZM102.015 101.43V109H100.48V100.019H101.974L102.015 101.43ZM104.821 99.9688L104.813 101.396C104.685 101.369 104.564 101.352 104.447 101.347C104.337 101.336 104.21 101.33 104.066 101.33C103.711 101.33 103.399 101.385 103.128 101.496C102.856 101.607 102.627 101.762 102.439 101.961C102.251 102.16 102.101 102.398 101.99 102.675C101.885 102.946 101.816 103.245 101.783 103.571L101.351 103.82C101.351 103.278 101.404 102.769 101.509 102.293C101.62 101.817 101.788 101.396 102.015 101.031C102.242 100.66 102.53 100.373 102.879 100.168C103.233 99.9577 103.653 99.8525 104.14 99.8525C104.251 99.8525 104.378 99.8664 104.522 99.894C104.666 99.9162 104.766 99.9411 104.821 99.9688Z" fill="url(#paint0_linear_802_353)"/>
<g clip-path="url(#clip0_802_353)">
<path d="M77 57.25H82.25ZM70.75 57.25H76ZM64.625 57.25H69.875ZM58.5 57.25H63.625ZM52.25 57.25H57.5ZM58.5 51.5H63.625ZM64.625 51.5H69.875ZM70.75 51.5H76ZM70.75 45.75H76Z" fill="black"/>
<path d="M77 57.25H82.25M70.75 57.25H76M64.625 57.25H69.875M58.5 57.25H63.625M52.25 57.25H57.5M58.5 51.5H63.625M64.625 51.5H69.875M70.75 51.5H76M70.75 45.75H76" stroke="url(#paint1_linear_802_353)" stroke-width="4.75"/>
<path d="M98.9998 57.5C98.9998 57.5 96.7498 55.375 92.1248 56.125C91.6248 52.5 87.7498 50.375 87.7498 50.375C87.7498 50.375 84.1248 54.75 86.7498 59.625C85.9998 60 84.7498 60.5 82.8748 60.5H48.4998C47.8748 62.875 47.8748 78.625 65.1248 78.625C77.4998 78.625 86.7498 72.875 91.1248 62.375C97.6248 62.875 98.9998 57.5 98.9998 57.5Z" fill="url(#paint2_linear_802_353)"/>
</g>
<defs>
<linearGradient id="paint0_linear_802_353" x1="71.7822" y1="92.5265" x2="71.7822" y2="112.138" gradientUnits="userSpaceOnUse">
<stop stop-color="#5190FE"/>
<stop offset="1" stop-color="#E28AFF"/>
</linearGradient>
<linearGradient id="paint1_linear_802_353" x1="67.25" y1="45.4777" x2="67.25" y2="56.7542" gradientUnits="userSpaceOnUse">
<stop stop-color="#5190FE"/>
<stop offset="1" stop-color="#E28AFF"/>
</linearGradient>
<linearGradient id="paint2_linear_802_353" x1="73.6579" y1="49.7061" x2="73.6579" y2="77.4071" gradientUnits="userSpaceOnUse">
<stop stop-color="#5190FE"/>
<stop offset="1" stop-color="#E28AFF"/>
</linearGradient>
<clipPath id="clip0_802_353">
<rect width="64" height="64" fill="white" transform="translate(40 29)"/>
</clipPath>
</defs>
</svg>
