<svg width="139" height="152" viewBox="0 0 139 152" fill="none" xmlns="http://www.w3.org/2000/svg">
<path d="M0.5 38.296L69.282 0.57027L138.064 38.296V113.704L69.282 151.43L0.5 113.704V38.296Z" fill="#352F2F" fill-opacity="0.27" stroke="#0B73D3"/>
<path d="M32.401 96.9141V109H30.8239V96.9141H32.401ZM36.2858 96.9141V98.2256H26.9474V96.9141H36.2858ZM42.4921 108.07L44.9907 100.019H46.6342L43.0317 110.386C42.9487 110.608 42.838 110.846 42.6996 111.1C42.5668 111.36 42.3953 111.606 42.185 111.839C41.9747 112.071 41.7202 112.259 41.4213 112.403C41.128 112.553 40.7766 112.627 40.3671 112.627C40.2454 112.627 40.0904 112.611 39.9023 112.578C39.7141 112.544 39.5813 112.517 39.5038 112.495L39.4955 111.25C39.5398 111.255 39.609 111.261 39.7031 111.266C39.8027 111.277 39.8718 111.283 39.9106 111.283C40.2592 111.283 40.5553 111.236 40.7988 111.142C41.0423 111.053 41.247 110.901 41.413 110.685C41.5846 110.475 41.7312 110.184 41.853 109.813L42.4921 108.07ZM40.6577 100.019L42.9902 106.991L43.3886 108.61L42.2846 109.174L38.9809 100.019H40.6577ZM52.2761 101.745V112.453H50.7321V100.019H52.1433L52.2761 101.745ZM58.3274 104.435V104.609C58.3274 105.262 58.2499 105.868 58.0949 106.427C57.94 106.98 57.7131 107.462 57.4143 107.871C57.121 108.281 56.7585 108.599 56.3269 108.826C55.8952 109.053 55.4 109.166 54.841 109.166C54.271 109.166 53.7675 109.072 53.3303 108.884C52.8931 108.696 52.5224 108.422 52.218 108.062C51.9136 107.702 51.6701 107.271 51.4875 106.767C51.3104 106.264 51.1887 105.696 51.1223 105.065V104.136C51.1887 103.472 51.3132 102.877 51.4958 102.351C51.6784 101.825 51.9192 101.377 52.218 101.006C52.5224 100.63 52.8904 100.345 53.322 100.151C53.7536 99.9521 54.2517 99.8525 54.8161 99.8525C55.3806 99.8525 55.8814 99.9632 56.3186 100.185C56.7557 100.4 57.1238 100.71 57.4226 101.114C57.7214 101.518 57.9455 102.002 58.0949 102.567C58.2499 103.126 58.3274 103.748 58.3274 104.435ZM56.7834 104.609V104.435C56.7834 103.986 56.7364 103.566 56.6423 103.173C56.5482 102.774 56.4016 102.426 56.2024 102.127C56.0087 101.823 55.7597 101.585 55.4553 101.413C55.1509 101.236 54.7885 101.147 54.3679 101.147C53.9805 101.147 53.643 101.214 53.3552 101.347C53.073 101.479 52.8322 101.659 52.633 101.886C52.4338 102.108 52.2706 102.362 52.1433 102.65C52.0215 102.932 51.9302 103.225 51.8694 103.53V105.68C51.98 106.067 52.135 106.432 52.3342 106.775C52.5334 107.113 52.799 107.387 53.1311 107.597C53.4631 107.802 53.8809 107.904 54.3845 107.904C54.7995 107.904 55.1565 107.819 55.4553 107.647C55.7597 107.47 56.0087 107.229 56.2024 106.925C56.4016 106.62 56.5482 106.272 56.6423 105.879C56.7364 105.48 56.7834 105.057 56.7834 104.609ZM66.7334 109.166C66.1081 109.166 65.5409 109.061 65.0317 108.851C64.5282 108.635 64.0938 108.333 63.7285 107.946C63.3688 107.558 63.0921 107.099 62.8984 106.568C62.7048 106.037 62.6079 105.456 62.6079 104.825V104.476C62.6079 103.746 62.7158 103.095 62.9316 102.525C63.1475 101.95 63.4408 101.463 63.8115 101.064C64.1823 100.666 64.6029 100.364 65.0732 100.16C65.5436 99.9549 66.0306 99.8525 66.5342 99.8525C67.1761 99.8525 67.7295 99.9632 68.1943 100.185C68.6647 100.406 69.0493 100.716 69.3481 101.114C69.647 101.507 69.8683 101.972 70.0122 102.509C70.1561 103.04 70.228 103.621 70.228 104.252V104.941H63.521V103.688H68.6924V103.571C68.6702 103.173 68.5872 102.785 68.4434 102.409C68.305 102.033 68.0837 101.723 67.7793 101.479C67.4749 101.236 67.0599 101.114 66.5342 101.114C66.1855 101.114 65.8646 101.189 65.5713 101.338C65.278 101.482 65.0262 101.698 64.8159 101.986C64.6056 102.274 64.4424 102.625 64.3262 103.04C64.21 103.455 64.1519 103.934 64.1519 104.476V104.825C64.1519 105.251 64.21 105.652 64.3262 106.028C64.4479 106.399 64.6222 106.726 64.8491 107.008C65.0815 107.29 65.361 107.511 65.6875 107.672C66.0195 107.832 66.3958 107.913 66.8164 107.913C67.3587 107.913 67.818 107.802 68.1943 107.581C68.5706 107.359 68.8999 107.063 69.1821 106.692L70.1118 107.431C69.9181 107.724 69.6719 108.004 69.373 108.27C69.0742 108.535 68.7062 108.751 68.269 108.917C67.8374 109.083 67.3255 109.166 66.7334 109.166ZM84.2786 102.575V103.339C84.2786 104.246 84.1652 105.06 83.9383 105.779C83.7114 106.499 83.3849 107.11 82.9588 107.614C82.5327 108.117 82.0208 108.502 81.4231 108.768C80.831 109.033 80.1669 109.166 79.4309 109.166C78.7171 109.166 78.0613 109.033 77.4637 108.768C76.8715 108.502 76.3569 108.117 75.9197 107.614C75.4881 107.11 75.1533 106.499 74.9153 105.779C74.6774 105.06 74.5584 104.246 74.5584 103.339V102.575C74.5584 101.668 74.6746 100.857 74.907 100.143C75.145 99.4237 75.4798 98.8122 75.9114 98.3086C76.343 97.7995 76.8549 97.4121 77.4471 97.1465C78.0447 96.8809 78.7005 96.748 79.4143 96.748C80.1503 96.748 80.8144 96.8809 81.4065 97.1465C82.0042 97.4121 82.5161 97.7995 82.9422 98.3086C83.3738 98.8122 83.7031 99.4237 83.93 100.143C84.1624 100.857 84.2786 101.668 84.2786 102.575ZM82.6931 103.339V102.559C82.6931 101.839 82.6184 101.203 82.469 100.649C82.3251 100.096 82.1121 99.6312 81.8299 99.2549C81.5476 98.8786 81.2018 98.5936 80.7923 98.3999C80.3883 98.2062 79.929 98.1094 79.4143 98.1094C78.9163 98.1094 78.4653 98.2062 78.0613 98.3999C77.6629 98.5936 77.3198 98.8786 77.032 99.2549C76.7498 99.6312 76.5312 100.096 76.3763 100.649C76.2213 101.203 76.1438 101.839 76.1438 102.559V103.339C76.1438 104.064 76.2213 104.706 76.3763 105.265C76.5312 105.818 76.7526 106.286 77.0403 106.667C77.3336 107.044 77.6795 107.329 78.0779 107.522C78.4819 107.716 78.9329 107.813 79.4309 107.813C79.9511 107.813 80.4132 107.716 80.8172 107.522C81.2211 107.329 81.5615 107.044 81.8382 106.667C82.1204 106.286 82.3334 105.818 82.4773 105.265C82.6212 104.706 82.6931 104.064 82.6931 103.339ZM89.3975 96.9141H93.3985C94.306 96.9141 95.0725 97.0524 95.6978 97.3291C96.3287 97.6058 96.8073 98.0153 97.1338 98.5576C97.4659 99.0944 97.6319 99.7557 97.6319 100.542C97.6319 101.095 97.5184 101.601 97.2916 102.061C97.0702 102.514 96.7492 102.902 96.3287 103.223C95.9136 103.538 95.4156 103.773 94.8345 103.928L94.3863 104.103H90.626L90.6094 102.799H93.4483C94.0238 102.799 94.5025 102.7 94.8843 102.5C95.2662 102.296 95.5539 102.022 95.7476 101.679C95.9413 101.336 96.0381 100.957 96.0381 100.542C96.0381 100.077 95.9468 99.6699 95.7642 99.3213C95.5816 98.9727 95.2938 98.7043 94.9009 98.5161C94.5136 98.3224 94.0128 98.2256 93.3985 98.2256H90.9996V109H89.3975V96.9141ZM96.4615 109L93.523 103.521L95.1915 103.513L98.1714 108.9V109H96.4615ZM103.099 96.9141H104.652L108.611 106.767L112.562 96.9141H114.123L109.209 109H107.997L103.099 96.9141ZM102.593 96.9141H103.963L104.187 104.285V109H102.593V96.9141ZM113.251 96.9141H114.621V109H113.027V104.285L113.251 96.9141Z" fill="url(#paint0_linear_802_371)"/>
<path d="M71.7837 47.3955C72.1011 47.3955 72.406 47.5196 72.6333 47.7412C72.8606 47.9627 72.9923 48.2644 73.0004 48.5817L73.0008 48.6126V62.5442C73.0008 62.8616 72.8769 63.1666 72.6553 63.3939C72.4337 63.6212 72.132 63.753 71.8146 63.761L71.7837 63.7615H60.4236C60.1061 63.7615 59.8012 63.6375 59.5738 63.4159C59.3465 63.1942 59.2148 62.8925 59.2068 62.5751L59.2065 62.5442V48.6126C59.2066 48.2952 59.3306 47.9903 59.5522 47.763C59.7738 47.5357 60.0754 47.4039 60.3927 47.3958L60.4236 47.3955H71.7837ZM71.7837 47.9369H60.4236C60.2486 47.937 60.0803 48.0049 59.9543 48.1263C59.8282 48.2478 59.7541 48.4134 59.7475 48.5884L59.7469 48.6126V62.5442C59.7471 62.7194 59.8152 62.8877 59.9369 63.0138C60.0585 63.1399 60.2243 63.2139 60.3994 63.2205L60.4236 63.2209H71.7837C71.9589 63.2206 72.1271 63.1525 72.2532 63.0308C72.3792 62.9092 72.4533 62.7435 72.4598 62.5684L72.4603 62.5442V48.6126C72.46 48.4333 72.3885 48.2615 72.2617 48.1348C72.1348 48.0081 71.9628 47.9369 71.7835 47.9369H71.7837ZM62.0461 60.3803V61.1911H61.2345V60.3803H62.0461ZM71.1082 60.3803V61.1911H62.4524V60.3803H71.1078H71.1082ZM62.0461 56.8639V57.6747H61.2345V56.8639H62.0461ZM71.1082 56.8639V57.6747H62.4524V56.8639H71.1078H71.1082ZM62.0461 53.4827V54.2933H61.2345V53.4827H62.0461ZM71.1082 53.4827V54.2933H62.4524V53.4827H71.1078H71.1082ZM71.1082 50.3718V51.1834H61.2342V50.3716H71.1078L71.1082 50.3718ZM71.7837 66.6V66.6086C72.0998 66.6085 72.4035 66.7314 72.6305 66.9513C72.8576 67.1711 72.9902 67.4707 73.0004 67.7866L73.0008 67.8173V81.7488C73.0008 82.0663 72.8769 82.3712 72.6553 82.5986C72.4337 82.8259 72.132 82.9576 71.8146 82.9657L71.7837 82.9661H60.4236C60.1072 82.9662 59.8032 82.843 59.5761 82.6227C59.349 82.4024 59.2166 82.1023 59.207 81.786L59.2065 81.7488V67.8173C59.2066 67.4999 59.3306 67.195 59.5522 66.9677C59.7738 66.7404 60.0754 66.6086 60.3927 66.6004L60.4236 66.6002H71.7837V66.6ZM71.7837 67.1416H60.4236C60.2486 67.1417 60.0803 67.2095 59.9543 67.331C59.8282 67.4525 59.7541 67.6181 59.7475 67.793L59.7469 67.8173V81.7488C59.7471 81.924 59.8152 82.0923 59.9369 82.2184C60.0585 82.3445 60.2243 82.4186 60.3994 82.4252L60.4236 82.4256H71.7837C71.9582 82.4253 72.1259 82.3578 72.2518 82.237C72.3777 82.1162 72.4522 81.9515 72.4598 81.7772L72.4603 81.7531V67.8216C72.46 67.6465 72.3919 67.4784 72.2703 67.3525C72.1486 67.2266 71.9829 67.1527 71.808 67.1463L71.7837 67.1459V67.1416ZM62.0461 79.5879V80.3998H61.2345V79.5879H62.0461ZM71.1082 79.5944V80.3936H62.4524V79.5944H71.1078H71.1082ZM62.0461 76.0716V76.8833H61.2345V76.0716H62.0461ZM71.1082 76.0778V76.877H62.4524V76.0778H71.1078H71.1082ZM62.0461 72.6912V73.5021H61.2345V72.6912H62.0461ZM71.1082 72.6977V73.4958H62.4524V72.6973H71.1078L71.1082 72.6977ZM71.1082 69.5803V70.392H61.2342V69.5803H71.1078H71.1082ZM75.0599 55.5785V56.254H79.1168V74.6298H75.0599V75.3063H79.7933V55.5785H79.1168H75.0599Z" fill="url(#paint1_linear_802_371)"/>
<path d="M46.1534 43.6493C46.9532 42.3373 48.2711 41.572 49.6022 41.1277L49.7838 41.069L49.9651 41.0143C50.0558 40.9878 50.1462 40.9627 50.2365 40.9391L50.4163 40.8933C50.4464 40.886 50.4762 40.8787 50.5059 40.8718L50.6842 40.831L50.7725 40.8119L50.9482 40.776L51.1221 40.7433L51.2935 40.7133L51.4626 40.6862L51.6287 40.6615L51.7917 40.6396L51.9513 40.62L52.1073 40.6026L52.2594 40.5874L52.4794 40.568L52.6889 40.553L52.887 40.5418L53.1023 40.5326L53.2993 40.527L53.4196 40.5251L53.5304 40.5242H53.6316L53.7642 40.5259L53.839 40.5274L53.9754 40.5321L54.0355 40.5352V43.7823C51.1635 43.509 49.882 44.3766 49.3169 45.301L49.266 45.3878C49.1958 45.5129 49.1351 45.6431 49.0845 45.7773L49.054 45.8624C49.049 45.8764 49.0443 45.8904 49.0398 45.9045L49.0138 45.9883L48.9906 46.0706L48.9704 46.1514C48.9672 46.1647 48.9639 46.178 48.9612 46.1911L48.9446 46.2695L48.9373 46.3082L48.9244 46.3834L48.9132 46.4565L48.9044 46.5271L48.8943 46.6281L48.8877 46.7224L48.8845 46.7963L48.8829 46.8649V46.9272L48.884 46.983L48.8862 47.0325L48.8898 47.0926L48.8967 47.1635V48.3565L48.8896 50.7922L48.881 52.5475L48.8711 54.0239L48.8604 55.2715L48.8496 56.254L48.8372 57.2105L48.8243 58.0258L48.808 58.8897L48.7979 59.3398L48.7869 59.7652L48.7727 60.2389L48.7678 60.3871L48.7674 60.6613L48.7659 60.8291L48.7639 60.9425L48.7596 61.114L48.7528 61.2798L48.7472 61.3808L48.7407 61.4822L48.7326 61.584L48.7179 61.737L48.7063 61.8393L48.6928 61.9418L48.6776 62.0442L48.6692 62.0954L48.6509 62.1976L48.641 62.2488L48.6196 62.3508L48.5959 62.4527L48.5699 62.5543C48.5607 62.588 48.5512 62.6217 48.5411 62.6553L48.5098 62.7562L48.4758 62.8561L48.4389 62.9556C48.0229 64.0305 47.0811 64.9876 44.9487 65.4308C47.0233 65.8616 47.9709 66.7779 48.4038 67.8156L48.4434 67.9148C48.4816 68.0145 48.5154 68.1151 48.545 68.2163L48.5736 68.3177C48.5916 68.3854 48.6079 68.4535 48.623 68.5218L48.644 68.624L48.6537 68.6754L48.6718 68.7779L48.6879 68.8806L48.7018 68.9833L48.7143 69.086L48.725 69.1884L48.7341 69.2907L48.7418 69.3928L48.751 69.5451L48.7558 69.6461L48.7616 69.8153L48.7641 69.9271L48.7661 70.0381L48.7674 70.2025L48.7678 70.4753L48.7824 70.951L48.7953 71.4533L48.8073 71.9917L48.8181 72.5619L48.8299 73.261L48.8458 74.4158L48.8565 75.3944L48.8621 75.9448L48.8735 77.3512L48.886 79.4378L48.8946 81.696L48.8978 81.6941V83.697L48.8946 83.7254L48.8907 83.7679L48.8883 83.8062L48.8851 83.8773L48.884 83.9334V83.9957L48.8855 84.0642L48.8887 84.1381L48.8952 84.2314L48.9014 84.2969L48.9139 84.4004L48.9246 84.4726L48.9373 84.5468L48.9523 84.623L48.9605 84.6617L48.979 84.7408L48.9893 84.7807L49.0116 84.8619L49.037 84.9442C49.0413 84.9582 49.046 84.9721 49.0507 84.9859L49.0806 85.0697C49.0909 85.0978 49.1021 85.1262 49.1135 85.1545L49.15 85.2396C49.6012 86.2511 50.7908 87.3436 53.868 87.0931L54.0366 87.078V90.3254L53.9505 90.3297L53.7906 90.3342L53.6591 90.3364H53.5029L53.3859 90.3353L53.2591 90.3327L53.1233 90.3288L52.9467 90.3218L52.8221 90.3155L52.6928 90.3078L52.5583 90.2986L52.4195 90.2878L52.2764 90.2749L52.1292 90.2605L51.9782 90.244L51.8237 90.2253L51.666 90.2045C51.6394 90.2007 51.6127 90.1969 51.5861 90.1931L51.4241 90.1686L51.3421 90.1557L51.1762 90.1273C51.1482 90.1224 51.1203 90.1174 51.0924 90.1123L50.9233 90.0796C50.8949 90.074 50.8664 90.0683 50.838 90.0624L50.6662 90.0259L50.4932 89.986C50.4352 89.9722 50.3772 89.958 50.319 89.943L50.1437 89.8968C48.5345 89.4581 46.8437 88.591 45.9742 86.8918C46.1628 84.8031 47.0218 83.0224 48.5646 81.9141C48.6372 81.8629 48.7106 81.8131 48.7852 81.7652L48.8694 81.7117C48.765 81.7761 48.6623 81.8445 48.5615 81.9162C47.0218 83.0224 46.1628 84.8031 45.9742 86.8834C45.587 86.1018 45.3842 85.2418 45.3812 84.3695L45.3619 83.4743L45.3367 82.3889L45.3054 81.1187L45.2624 79.4996L45.2233 78.0954L45.1692 76.257L45.1081 74.2878L45.0059 71.1888L44.9812 70.4702C44.9208 68.8434 44.2679 68.0511 43.5883 67.6686L43.5082 67.6254C43.4949 67.6186 43.4816 67.6119 43.4682 67.6053L43.3881 67.5674C43.3617 67.5556 43.3351 67.5441 43.3084 67.5331L43.2291 67.5021C43.2031 67.4922 43.1769 67.4829 43.1505 67.4742L43.0727 67.4488C43.0469 67.4411 43.0216 67.4338 42.9962 67.4267L42.9354 67.4106L42.8757 67.3962L42.8168 67.3833L42.7593 67.3719L42.6753 67.3573L42.6209 67.3494L42.5683 67.3425L42.4924 67.3341L42.4254 67.3337L42.2885 67.3322C42.2171 67.3311 42.1456 67.3311 42.0741 67.3322L42 67.3341V63.5286C42.1781 63.535 42.3373 63.5318 42.4924 63.5234L42.5683 63.5148L42.6209 63.5082L42.6753 63.5L42.7593 63.4854L42.8168 63.474L42.8757 63.4611L42.9354 63.4467L42.9962 63.4308L43.0727 63.4085L43.1505 63.3834L43.2291 63.3554C44.0189 63.06 44.9101 62.301 44.9812 60.3871L45.0736 57.635L45.1451 55.3869L45.1838 54.1111L45.2431 52.0645L45.2817 50.641L45.3099 49.5567L45.3453 48.105L45.366 47.2026L45.3812 46.487C45.4048 45.3593 45.6829 44.4438 46.1239 43.7009L46.1536 43.6517L46.1534 43.6493ZM84.9634 43.7288V40.4819L85.0506 40.4776L85.1718 40.4739L85.2504 40.4724L85.3892 40.4709H85.4951L85.6111 40.4722L85.7899 40.4759L86.0183 40.484L86.1405 40.4898L86.2677 40.4971L86.4677 40.5107L86.6067 40.5218L86.7498 40.5347L86.897 40.5498L87.0476 40.5665L87.2018 40.5854L87.3591 40.6065L87.5194 40.6301L87.6824 40.6559L87.7647 40.6699L87.9312 40.6997L88.0997 40.7324L88.2698 40.7676L88.4417 40.8063L88.6144 40.8475C88.7012 40.869 88.7885 40.892 88.8757 40.9159L89.0506 40.9657C90.6855 41.4459 92.3662 42.382 93.1558 44.1942C93.4562 44.9026 93.6136 45.6634 93.6188 46.4328L93.6381 47.3281L93.6633 48.4135L93.6809 49.1396L93.7088 50.2268L93.7473 51.6583L93.7767 52.7076L93.8308 54.5462L93.8919 56.5154L93.9941 59.6144L94.0188 60.333C94.0803 61.9869 94.754 62.7779 95.4456 63.1528L95.5255 63.1943L95.5655 63.2136L95.645 63.2502L95.7245 63.2828C95.7376 63.2882 95.7509 63.2931 95.764 63.2981L95.8424 63.3264L95.8813 63.3393L95.9584 63.3632L95.9965 63.3741L96.1095 63.4031L96.1832 63.4197L96.2549 63.4336L96.3247 63.4457L96.3791 63.4538L96.4317 63.4607L96.5076 63.4691C96.6406 63.4762 96.7789 63.4796 96.9259 63.4764L97 63.4742V67.2808C96.8359 67.2752 96.6716 67.277 96.5076 67.2862L96.4575 67.2914L96.4055 67.2978L96.3247 67.3094L96.2407 67.324L96.1832 67.3354L96.1243 67.3483L96.0646 67.3627L96.0038 67.3786L95.9657 67.3893L95.8884 67.413L95.8495 67.4259L95.7709 67.454C95.7577 67.4589 95.7445 67.4639 95.7313 67.469L95.6519 67.5019C94.8941 67.8283 94.0863 68.6041 94.019 70.4223L93.9262 73.1729L93.8549 75.4213L93.8162 76.6972L93.7569 78.744L93.7183 80.1676L93.6901 81.2519L93.6547 82.7036L93.634 83.606L93.6188 84.3214C93.6128 84.9906 93.494 85.6539 93.2673 86.2836L93.2402 86.3572L93.2415 86.3641C92.432 88.4556 90.473 89.439 88.6645 89.8966L88.487 89.94L88.3989 89.9604L88.2234 89.9991L88.1364 90.0169L87.9637 90.0508L87.8779 90.0667L87.7082 90.0964L87.6244 90.1101L87.4586 90.1359L87.2957 90.1589L87.1361 90.1795L86.9797 90.1978L86.8271 90.2141L86.6787 90.2283L86.4638 90.2459L86.3263 90.2556L86.1298 90.2672L85.945 90.2753L85.7194 90.2822L85.5909 90.2844L85.4728 90.2852H85.3658L85.2702 90.2842L85.1868 90.2827L85.0852 90.2796L84.9971 90.276L84.9664 90.2743V87.0271C87.9731 87.3133 89.2366 86.3491 89.76 85.3782L89.8051 85.2912C89.8193 85.2624 89.833 85.2332 89.8459 85.2044L89.8835 85.118C89.8953 85.0895 89.9067 85.0607 89.9175 85.0321L89.9482 84.9472L89.9757 84.863L89.9884 84.8213L90.0116 84.739L90.0318 84.658L90.0496 84.5788L90.0648 84.5014L90.0777 84.4262L90.0887 84.3532L90.0977 84.2823L90.1078 84.1813L90.1125 84.1177L90.1177 84.0131L90.1192 83.9448V83.8825L90.1181 83.8262L90.116 83.777L90.1138 83.7351L90.1087 83.6743L90.1054 83.6459V81.8651L90.1104 80.2071L90.1186 78.4963L90.1282 77.0545L90.1409 75.5826L90.1555 74.2615L90.1658 73.4935L90.1755 72.8749L90.1884 72.1655L90.1974 71.7165L90.2075 71.2894L90.218 70.8866L90.2322 70.4212L90.2326 70.1484L90.2341 69.9821L90.2359 69.8699L90.2387 69.7569L90.2447 69.5859L90.2503 69.4712L90.2565 69.3689L90.264 69.2664L90.2726 69.1635L90.2833 69.0604L90.2952 68.9573L90.3089 68.8537L90.3166 68.8021L90.3332 68.6988L90.3519 68.5957L90.3727 68.4926L90.3959 68.3894C90.4243 68.2698 90.4576 68.1505 90.4965 68.0324L90.5315 67.9314C90.58 67.7973 90.6363 67.665 90.7019 67.5348L90.7526 67.4377C91.2437 66.5358 92.1976 65.7619 94.0513 65.3765C91.7133 64.8911 90.8067 63.7894 90.4548 62.5919L90.4264 62.4905C90.4084 62.4228 90.3921 62.3547 90.377 62.2864L90.356 62.1841L90.3463 62.133L90.3282 62.0303L90.3121 61.9276L90.2982 61.8249L90.2857 61.7224L90.275 61.6199L90.2659 61.5177L90.2582 61.4156L90.249 61.2633L90.2442 61.1623L90.2384 60.993L90.2359 60.8813L90.2339 60.7704L90.2326 60.6059L90.2322 60.333L90.2221 60.0157L90.2112 59.6122L90.1987 59.0929L90.1873 58.5399L90.1766 57.9577L90.1641 57.1441L90.1493 55.974L90.1381 54.8807L90.1278 53.6142L90.1143 51.362L90.1054 48.9214C90.2902 48.8195 90.4692 48.7076 90.6417 48.5862C91.5019 47.97 92.1499 47.1395 92.5867 46.1623L92.6168 46.094C92.1793 47.1008 91.5211 47.9561 90.6387 48.5875C90.4947 48.6885 90.3465 48.783 90.194 48.8709L90.1022 48.9224V47.1104L90.1054 47.0821L90.1093 47.0393L90.1117 47.0011L90.1149 46.9302L90.116 46.8741V46.8118L90.1145 46.7431L90.1113 46.6692L90.1074 46.6079L90.0988 46.5104L90.0861 46.4068L90.0754 46.3349L90.0627 46.2605L90.0477 46.1843C90.045 46.1713 90.0423 46.1585 90.0395 46.1456L90.021 46.0667C90.0177 46.0533 90.0142 46.0399 90.0107 46.0266L89.9884 45.9454L89.963 45.8631C89.9587 45.8493 89.954 45.8354 89.9493 45.8214L89.9194 45.7376C89.9091 45.7097 89.8979 45.6813 89.8865 45.6529L89.85 45.5677C89.3988 44.5564 88.2092 43.4639 85.132 43.7142L84.9634 43.7292V43.7288Z" fill="url(#paint2_linear_802_371)"/>
<path d="M48.6966 48.2248C48.7288 48.2485 48.7624 48.2706 48.7959 48.2923L48.8966 48.3568V47.1637L48.8934 47.1354L48.8898 47.0926L48.8872 47.0544L48.884 46.9833L48.8829 46.9274V46.8649L48.8844 46.7963L48.8876 46.7224L48.8917 46.6601L48.8971 46.595L48.9044 46.5271L48.9132 46.4565L48.9241 46.3834L48.937 46.3082L48.9525 46.2307L48.9611 46.1911L48.98 46.1112L49.0017 46.0296L49.0137 45.9881L49.0395 45.9045L49.0539 45.8624L49.0844 45.7773C49.133 45.6491 49.1927 45.5182 49.266 45.3878L49.3169 45.301C49.8819 44.3766 51.1635 43.5092 54.0357 43.7823V40.5352L53.9755 40.5321L53.8722 40.5285L53.803 40.5266L53.6316 40.5244H53.5306L53.4195 40.5251L53.2356 40.5285L53.0676 40.5339L52.8869 40.5418L52.6888 40.5532L52.4794 40.5682L52.3337 40.5805L52.1073 40.6026L51.9513 40.6198L51.7917 40.6396L51.6286 40.6615L51.4625 40.6862L51.2934 40.7133L51.122 40.7433L50.9482 40.776L50.7724 40.8119C50.7429 40.8182 50.7134 40.8247 50.6839 40.8312L50.5058 40.8718C50.4762 40.8787 50.4463 40.886 50.4162 40.8933L50.2364 40.9391C50.1462 40.9627 50.0559 40.9878 49.9651 41.0143L49.7837 41.069L49.6022 41.1277C48.271 41.572 46.9532 42.3373 46.1533 43.6493C46.412 45.5651 47.2563 47.1983 48.6966 48.2248ZM54.0366 90.3256V87.0783C50.8953 87.3771 49.6568 86.3113 49.1772 85.2989L49.1379 85.2123C49.1194 85.1698 49.1019 85.1268 49.0855 85.0834L49.055 84.9981C49.0502 84.9841 49.0454 84.9701 49.0408 84.956L49.0148 84.8722L48.9916 84.7902L48.9712 84.7092L48.9536 84.6299L48.9383 84.5526L48.9252 84.4774L48.9145 84.4043L48.9054 84.3334L48.8954 84.2324L48.8887 84.1381L48.8855 84.0642L48.884 83.9957V83.9334L48.885 83.8775L48.8872 83.8281L48.8893 83.7862L48.8945 83.7254L48.8977 83.6953V81.6941C48.7845 81.7639 48.6734 81.8374 48.5647 81.9141C47.0217 83.0224 46.1628 84.8031 45.9741 86.892C46.8438 88.591 48.5342 89.4581 50.1436 89.8968L50.3189 89.943C50.3769 89.958 50.4351 89.9722 50.4931 89.986L50.6663 90.0257L50.838 90.0624L51.0079 90.0962C51.0363 90.1018 51.0642 90.1069 51.0923 90.1121L51.2593 90.1417L51.342 90.1555L51.5053 90.1813L51.5861 90.1931L51.7453 90.2152L51.8237 90.2253L51.9784 90.244L52.1292 90.2605L52.2763 90.2749L52.4194 90.2878L52.5582 90.2986L52.6927 90.3078L52.8221 90.3155L53.0068 90.3246L53.1233 90.3288L53.2593 90.3327L53.386 90.3353L53.5029 90.3364L53.6591 90.3362L53.7906 90.3342L53.8958 90.3314L54.0366 90.3254V90.3256ZM93.1557 44.1939C92.3157 42.2664 90.4678 41.3301 88.7392 40.8791L88.5667 40.8357L88.3952 40.7953L88.3102 40.7762L88.1409 40.7403L88.0566 40.7236L87.8899 40.692L87.7253 40.663L87.5629 40.6366L87.4031 40.6125L87.246 40.591L87.092 40.5717L86.9414 40.5543L86.7942 40.539L86.6509 40.5255L86.4436 40.5087L86.2462 40.4956L86.0597 40.4855L85.8848 40.4784L85.7752 40.4752L85.6431 40.4724L85.5208 40.4707H85.4096L85.3092 40.4713L85.2207 40.4726L85.1107 40.4754L85.0299 40.4784L84.9633 40.4817V43.729C88.1046 43.43 89.3431 44.4958 89.8227 45.5081L89.862 45.5949C89.8807 45.6379 89.8981 45.6811 89.9144 45.7238L89.9449 45.8089C89.9498 45.8231 89.9546 45.8371 89.9591 45.8513L89.9851 45.9348L90.0083 46.0171L90.0287 46.0979L90.0463 46.1774L90.0616 46.2547L90.0747 46.3299L90.0854 46.403L90.0944 46.4739L90.1045 46.5748L90.1112 46.6689L90.1144 46.7431L90.1159 46.8114V46.8737L90.1148 46.9298L90.1127 46.9792L90.1093 47.0393L90.1022 47.1107V48.9224C90.2868 48.8204 90.4659 48.7085 90.6386 48.5873C92.0349 47.5878 92.8709 46.0283 93.1557 44.1939ZM90.7768 82.2765C90.5626 82.1242 90.3383 81.9866 90.1054 81.8649V83.6457L90.1086 83.6741L90.1123 83.7166L90.1148 83.7548L90.1181 83.826L90.1191 83.882V83.9443L90.1176 84.0129L90.1125 84.1175L90.1078 84.1811L90.0977 84.2821L90.0886 84.353L90.0779 84.426L90.0648 84.5012L90.0495 84.5786L90.0317 84.658L90.0115 84.7388L89.9883 84.8211L89.9756 84.8628L89.9481 84.947L89.9174 85.0321C89.9067 85.0604 89.8953 85.0892 89.8835 85.118L89.8461 85.2042C89.833 85.2332 89.8192 85.2622 89.8048 85.291L89.7599 85.378C89.2366 86.3491 87.9731 87.3131 84.9663 87.0269V90.2741L85.0145 90.2766L85.1528 90.2816L85.3228 90.2846L85.4259 90.2852L85.6021 90.2842L85.7327 90.2818L85.8734 90.2777L86.0479 90.2708L86.2339 90.2612L86.3641 90.2528L86.568 90.2378L86.7091 90.2253L86.8544 90.2111L87.0033 90.195L87.1558 90.1767L87.3113 90.1565L87.4701 90.1338L87.6313 90.1088C87.6585 90.1046 87.6856 90.1 87.7129 90.0953L87.8779 90.0665L88.0448 90.0349L88.129 90.0182L88.2988 89.9825L88.3841 89.9636L88.5559 89.9232C90.3941 89.4776 92.4156 88.4973 93.2417 86.3639C92.9147 84.6596 92.0914 83.2182 90.7768 82.2765Z" fill="url(#paint3_linear_802_371)"/>
<defs>
<linearGradient id="paint0_linear_802_371" x1="71.2822" y1="92.5265" x2="71.2822" y2="112.138" gradientUnits="userSpaceOnUse">
<stop stop-color="#5190FE"/>
<stop offset="1" stop-color="#E28AFF"/>
</linearGradient>
<linearGradient id="paint1_linear_802_371" x1="69.4999" y1="46.5533" x2="69.4999" y2="81.4327" gradientUnits="userSpaceOnUse">
<stop stop-color="#5190FE"/>
<stop offset="1" stop-color="#E28AFF"/>
</linearGradient>
<linearGradient id="paint2_linear_802_371" x1="69.5" y1="39.2903" x2="69.5" y2="88.1866" gradientUnits="userSpaceOnUse">
<stop stop-color="#5190FE"/>
<stop offset="1" stop-color="#E28AFF"/>
</linearGradient>
<linearGradient id="paint3_linear_802_371" x1="69.6079" y1="39.29" x2="69.6079" y2="88.1866" gradientUnits="userSpaceOnUse">
<stop stop-color="#5190FE"/>
<stop offset="1" stop-color="#E28AFF"/>
</linearGradient>
</defs>
</svg>
