<svg xmlns="http://www.w3.org/2000/svg" viewBox="0 0 256 256" id="microphone-slash">
  <rect width="256" height="256" fill="none"></rect>
  <line x1="128" x2="128" y1="200" y2="232" fill="none" stroke="currentColor" stroke-linecap="round" stroke-linejoin="round" stroke-width="8"></line>
  <path fill="none" stroke="currentColor" stroke-linecap="round" stroke-linejoin="round" stroke-width="8" d="M176.43278,181.27606a72.00558,72.00558,0,0,1-119.99334-45.276"></path>
  <line x1="48" x2="208" y1="40" y2="216" fill="none" stroke="currentColor" stroke-linecap="round" stroke-linejoin="round" stroke-width="8"></line>
  <path fill="none" stroke="currentColor" stroke-linecap="round" stroke-linejoin="round" stroke-width="8" d="M154.90713 157.59783A39.85426 39.85426 0 0 1 128.00009 168H128a40 40 0 0 1-40-40V84.0087M93.95908 42.98431A39.97458 39.97458 0 0 1 128 24h.00008A39.99991 39.99991 0 0 1 168 63.99991V124.4291M199.56055 136.00017a71.54833 71.54833 0 0 1-4.482 18.21516"></path>
</svg>
