<svg xmlns="http://www.w3.org/2000/svg" viewBox="0 0 64 64">
    <path fill="currentColor" d="M12.876 27.173L5.217 27.173C3.68 27.173 2.432 28.421 2.432 29.958L2.432 57.808C2.432 59.345 3.68 60.593 5.217 60.593L12.876 60.593C13.26 60.593 13.572 60.281 13.572 59.897L13.572 27.869C13.572 27.485 13.26 27.173 12.876 27.173zM18.055 24.016Q28.17 15.609 26.286 6.33C24.401-2.948 37.014 3.866 35.564 15.609 34.114 27.351 33.679 24.887 54.12 24.887Q67.99 24.887 56.029 56.893C54.976 59.712 51.678 62 48.669 62L22.459 62C19.45 62 17.007 59.557 17.007 56.548L17.007 26.25C17.007 25.498 17.477 24.497 18.055 24.016z"></path>
</svg>
