<svg xmlns="http://www.w3.org/2000/svg" viewBox="0 0 36 36" id="grinning-face-with-smiling-eye"><path stroke="currentColor" d="M18,1A17,17,0,1,0,35,18,17.019,17.019,0,0,0,18,1Zm0,33A16,16,0,1,1,34,18,16.01833,16.01833,0,0,1,18,34ZM10.5,15a.49971.49971,0,0,0,.5-.5c0-1.897.916-3.5,2-3.5s2,1.603,2,3.5a.5.5,0,0,0,1,0c0-2.52344-1.31738-4.5-3-4.5s-3,1.97656-3,4.5A.49971.49971,0,0,0,10.5,15Zm10,0a.49971.49971,0,0,0,.5-.5c0-1.86426.93457-3.5,2-3.5s2,1.63574,2,3.5a.5.5,0,0,0,1,0c0-2.48145-1.3457-4.5-3-4.5s-3,2.01855-3,4.5A.49971.49971,0,0,0,20.5,15Zm8,7H7.5a.49971.49971,0,0,0-.5.5,8.29446,8.29446,0,0,0,.27637,2.12842l.00085.002.00012.00049C8.43258,28.90088,12.94234,32,18,32s9.56738-3.09912,10.72363-7.37158A8.29446,8.29446,0,0,0,29,22.5.49971.49971,0,0,0,28.5,22ZM18,31c-4.358,0-8.2569-2.48883-9.55237-6H27.55245C26.25545,28.51227,22.35714,31,18,31Zm9.85931-7.105c-.00683.03515-.01519.07-.02252.105H8.16329c-.00745-.03546-.01587-.07068-.02277-.10626A7.32,7.32,0,0,1,8.01656,23h19.9668A7.32943,7.32943,0,0,1,27.85927,23.895Z"></path></svg>
