<svg fill="currentColor" xmlns="http://www.w3.org/2000/svg" viewBox="0 0 100 100">
    <path fill="currentColor" d="M69.4 46c-4.9 0-8.9-4-8.9-8.9s4-8.9 8.9-8.9 8.9 4 8.9 8.9-4 8.9-8.9 8.9zm0-15.8c-3.8 0-6.9 3.1-6.9 6.9s3.1 6.9 6.9 6.9 6.9-3.1 6.9-6.9-3.1-6.9-6.9-6.9z"></path>
    <path fill="currentColor" d="m85.7 58.7-6.7-12c.7-.2 1.4-.5 1.9-1.2.6-.9.6-2 .5-3 0-.6-.1-1.1 0-1.5.1-.3.5-.8.8-1.2.6-.8 1.4-1.6 1.4-2.8s-.7-2-1.4-2.8c-.3-.4-.7-.8-.8-1.2-.1-.4-.1-.9 0-1.5.1-1 .1-2.1-.5-3-.7-.9-1.7-1.2-2.7-1.4-.5-.1-1.1-.3-1.4-.5-.3-.2-.6-.7-.9-1.2-.5-.8-1.1-1.8-2.2-2.1-1-.3-2 .1-2.9.4-.5.2-1.1.4-1.5.4-.4 0-.9-.2-1.5-.4-.9-.4-1.9-.8-2.9-.4-1.1.3-1.7 1.3-2.2 2.1-.3.5-.6.9-.9 1.2-.3.2-.9.4-1.4.5-1 .2-2 .5-2.7 1.4-.6.9-.6 2-.5 3 0 .6.1 1.1 0 1.5-.1.3-.5.8-.8 1.2-.6.8-1.4 1.6-1.4 2.8 0 1.1.7 2 1.4 2.8.3.4.7.8.8 1.2.1.4.1.9 0 1.5-.1 1-.1 2.1.5 3 .6.8 1.5 1.1 2.4 1.3l-6.6 11.9c-.2.3-.2.7 0 1 .2.3.5.5.9.5l4.3-.3 2 3.8c.2.3.5.5.9.5s.7-.2.9-.5L69.7 51l7 12.6c.2.3.5.5.9.5s.7-.2.9-.5l2-3.8 4.3.3c.4 0 .7-.2.9-.5.2-.2.2-.6 0-.9zM59.3 42.6c0-.7.1-1.5-.1-2.2-.2-.7-.7-1.3-1.2-1.8-.4-.5-.9-1.1-.9-1.5s.5-1 .9-1.5c.5-.6 1-1.1 1.2-1.8.2-.7.2-1.5.1-2.2 0-.7-.1-1.4.1-1.7.2-.3.9-.5 1.5-.6.7-.2 1.5-.4 2.1-.8.6-.4 1-1.1 1.4-1.7.4-.6.7-1.2 1.1-1.3h.2c.4 0 .9.2 1.4.4.7.3 1.4.6 2.2.6s1.5-.3 2.2-.6c.6-.2 1.2-.5 1.6-.4.4.1.7.7 1.1 1.3.4.6.8 1.3 1.4 1.7.6.4 1.4.6 2.1.8.7.2 1.3.3 1.5.6.2.3.2 1 .1 1.7 0 .7-.1 1.5.1 2.2.2.7.7 1.3 1.2 1.8.4.5.9 1.1.9 1.5s-.5 1-.9 1.5c-.5.6-1 1.1-1.2 1.8-.2.7-.2 1.5-.1 2.2 0 .7.1 1.4-.1 1.7-.2.3-.9.5-1.5.6-.7.2-1.5.4-2.1.8-.6.4-1 1.1-1.4 1.7-.4.6-.7 1.2-1.1 1.3-.3.1-1-.2-1.6-.4-.5-.2-1.1-.4-1.6-.5-.2 0-.4-.1-.6-.1-.8 0-1.5.3-2.2.6-.6.2-1.2.5-1.6.4-.4-.1-.7-.7-1.1-1.3-.4-.6-.8-1.3-1.4-1.7-.6-.4-1.4-.6-2.1-.8-.7-.2-1.3-.3-1.5-.6-.2-.3-.1-1-.1-1.7zm2.5 18.5-1.5-2.7c-.2-.3-.6-.5-.9-.5l-3.1.1 5.8-10.5c.2.2.5.6.7 1 .5.8 1.1 1.8 2.2 2.1.3.1.5.1.8.1.7 0 1.5-.3 2.1-.6l-6.1 11zM80 57.8c-.4 0-.8.2-.9.5L77.6 61l-5.8-10.5c.6.2 1.3.3 2 .1 1.1-.3 1.7-1.3 2.2-2.1.3-.5.6-.9.9-1.2.1-.1.2-.1.3-.1l6 10.8-3.2-.2z"></path><path d="M87.4 75.7H13c-2.4 0-4.3-1.9-4.3-4.3V16.6c0-2.4 1.9-4.3 4.3-4.3h74.4c2.4 0 4.3 1.9 4.3 4.3v54.8c0 2.3-2 4.3-4.3 4.3zM13 14.3c-1.3 0-2.3 1-2.3 2.3v54.8c0 1.3 1 2.3 2.3 2.3h74.4c1.3 0 2.3-1 2.3-2.3V16.6c0-1.3-1-2.3-2.3-2.3H13z"></path>
    <path fill="currentColor" d="M83.9 71.5H16.8c-2.1 0-3.8-1.7-3.8-3.8V20.3c0-2.1 1.7-3.8 3.8-3.8h67.1c2.1 0 3.8 1.7 3.8 3.8v47.4c0 2.1-1.7 3.8-3.8 3.8zm-67.1-54c-1.5 0-2.8 1.3-2.8 2.8v47.4c0 1.5 1.3 2.8 2.8 2.8h67.1c1.5 0 2.8-1.3 2.8-2.8V20.3c0-1.5-1.3-2.8-2.8-2.8H16.8z"></path>
    <path fill="currentColor" d="M52.7 27.2H20.3c-.6 0-1-.4-1-1s.4-1 1-1h32.3c.6 0 1 .4 1 1s-.4 1-.9 1zm-3.7 25H20.3c-.6 0-1-.4-1-1s.4-1 1-1H49c.6 0 1 .4 1 1s-.4 1-1 1zm0-11.5H20.3c-.6 0-1-.4-1-1s.4-1 1-1H49c.6 0 1 .4 1 1s-.4 1-1 1zM35.5 59.8H20.3c-.6 0-1-.4-1-1s.4-1 1-1h15.2c.6 0 1 .4 1 1s-.4 1-1 1z"></path>
</svg>
