<svg fill="currentColor" xmlns="http://www.w3.org/2000/svg" viewBox="0 0 45 45">
    <path d="M24 33.6c-5.24-2.7-7.86-6.5-7.86-11.36a7.86 7.86 0 1 1 15.72 0q0 7.61-7.86 11.36Zm0-7.86a3.49 3.49 0 1 0-3.5-3.48 3.5 3.5 0 0 0 3.5 3.48Z"></path>
    <path d="m37.76 9.62-1.49-.52a2.16 2.16 0 1 0-2.1 2.62 2.25 2.25 0 0 0 1.49-.61l1.22.53a2.89 2.89 0 0 1 1.57 2.7v19.4a2.91 2.91 0 0 1-1.57 2.71l-1.14.44a2.17 2.17 0 1 0-1.57 3.67 2.26 2.26 0 0 0 2.1-1.49l1.57-.53a5.11 5.11 0 0 0 3.23-4.71V14.36a5.41 5.41 0 0 0-3.31-4.74zM14.52 36.19a2.28 2.28 0 0 0-1.74.89l-1.57-.53A3.18 3.18 0 0 1 9.55 34V14.17a3 3 0 0 1 1.66-2.45l1.79-.61a2.15 2.15 0 1 0-.53-2.18l-2.18.69a5.25 5.25 0 0 0-3.31 4.55V34.1a5.3 5.3 0 0 0 3.42 4.55l2.09.69a2.19 2.19 0 0 0 2 1.3 2.17 2.17 0 0 0 2.18-2.18 2.11 2.11 0 0 0-2.15-2.27z"></path>
</svg>
