<svg xmlns="http://www.w3.org/2000/svg" id="music"><path style="text-indent:0;text-align:start;line-height:normal;text-transform:none;block-progression:tb;marker:none;-inkscape-font-specification:Sans" d="M12.5 0C5.602 0 0 5.602 0 12.5S5.602 25 12.5 25 25 19.398 25 12.5 19.398 0 12.5 0zm0 .938c6.378 0 11.531 5.184 11.531 11.562A11.519 11.519 0 0 1 12.5 24.031 11.519 11.519 0 0 1 .969 12.5C.969 6.122 6.122.937 12.5.937zM17 7l-7 2.344v5.625a1.969 1.969 0 0 0-1-.281c-1.099 0-2 .9-2 2 0 1.098.901 2 2 2s2-.902 2-2v-6.625l5-1.688v5.594a1.969 1.969 0 0 0-1-.281c-1.099 0-2 .9-2 2 0 1.098.901 2 2 2s2-.902 2-2V7zm-2 7.688c.558 0 1 .441 1 1 0 .558-.442 1-1 1s-1-.442-1-1c0-.559.442-1 1-1zm-6 1c.558 0 1 .441 1 1 0 .558-.442 1-1 1s-1-.442-1-1c0-.559.442-1 1-1z" fill="currentColor"></path></svg>
