<svg xmlns="http://www.w3.org/2000/svg" viewBox="0 0 128 128" id="phone"><path fill="currentColor"  d="M31.2598 32.6284C31.7325 31.9576 32.1892 31.3039 32.622 30.6771C36.5455 24.9953 44.7188 24.53 49.0588 29.7133L54.0551 35.6803C57.2046 39.4418 56.3543 45.1109 52.2399 47.7829L51.0433 48.56C48.7787 50.0307 47.9394 52.9422 49.0736 55.3927C54.0851 66.2201 62.7801 74.915 73.6074 79.9265C76.0579 81.0607 78.9695 80.2214 80.4401 77.9568L81.2173 76.7602C83.8893 72.6458 89.5583 71.7955 93.3198 74.945L99.2868 79.9413C104.47 84.2813 104.005 92.4546 98.323 96.3781C97.6962 96.8109 97.0425 97.2676 96.3718 97.7403C87.5638 103.948 75.9125 104.332 67.0344 98.4132C52.5986 88.7888 40.2113 76.4015 30.5869 61.9658C24.6678 53.0876 25.052 41.4363 31.2598 32.6284Z"></path></svg>
