<svg xmlns="http://www.w3.org/2000/svg" enable-background="new 0 0 512 512" viewBox="0 0 512 512" id="sound"><path fill="currentColor" d="M272.218 436.826c-6.876 0-12.685-2.548-16.831-7.376-.494-.472-2.203-2.098-7.999-7.569-4.923-4.601-12.027-10.603-21.691-18.324-9.247-7.298-20.572-15.326-33.627-23.834-12.692-8.273-27.228-16.177-43.204-23.491-15.84-7.249-32.936-13.322-50.812-18.051-17.726-4.75-36.364-7.155-55.418-7.155-6.555 0-12.355-2.45-16.774-7.086-4.325-4.597-6.593-10.215-6.593-16.28V205.577c0-6.149 2.206-11.616 6.557-16.248 4.459-4.672 10.258-7.118 16.81-7.118 19.031 0 37.669-2.406 55.398-7.151 17.904-4.735 35-10.811 50.832-18.061 15.847-7.25 30.367-15.223 43.159-23.698 13.125-8.705 24.485-16.761 33.761-23.939 9.544-7.433 16.592-13.384 21.528-18.182 2.989-2.906 5.183-5.032 6.57-6.378.859-.834 1.4-1.357 1.618-1.571 6.475-6.867 15.415-8.854 25.129-5.438.23.081.455.173.674.276 9.021 4.238 13.789 11.76 13.789 21.752v313.593c0 4.789-1.223 9.127-3.633 12.895-.019.03-.038.06-.058.09-2.552 3.86-6.074 6.716-10.47 8.486-.06.024-.119.047-.178.069C277.324 436.231 274.611 436.826 272.218 436.826zM271.508 90.531c-2.162 0-3.883.813-5.578 2.636-.063.065-.125.131-.188.194-.132.131-.743.725-1.831 1.78-1.385 1.343-3.574 3.465-6.558 6.366-5.319 5.169-12.755 11.459-22.735 19.23-9.568 7.406-21.216 15.667-34.635 24.567-13.418 8.891-28.599 17.23-45.123 24.79-16.574 7.59-34.447 13.943-53.123 18.883-18.922 5.064-38.813 7.635-59.101 7.635-2.628 0-4.646.833-6.352 2.619-1.769 1.884-2.612 3.913-2.612 6.345v102.082c0 2.43.841 4.456 2.648 6.377 1.695 1.778 3.653 2.587 6.316 2.587 20.313 0 40.205 2.57 59.124 7.64 18.644 4.931 36.517 11.283 53.102 18.872 16.624 7.61 31.788 15.86 45.074 24.521 13.417 8.744 25.1 17.028 34.72 24.621 9.991 7.983 17.371 14.224 22.595 19.105 7.937 7.492 8.354 7.909 8.492 8.046.165.165.323.338.472.519 1.01 1.225 2.514 2.476 6.004 2.477.039-.001.939-.019 3.415-.932 1.601-.66 2.82-1.64 3.726-2.99.909-1.441 1.333-3.06 1.333-5.088V99.821c0-4.229-1.508-6.733-5.186-8.56C274.039 90.777 272.695 90.531 271.508 90.531zM404.669 447.26c-1.98 0-3.951-.811-5.374-2.403-2.649-2.966-2.393-7.519.573-10.169 25.246-22.553 45.019-49.633 58.768-80.489 13.688-30.797 20.631-63.597 20.631-97.482 0-34.201-6.943-67.184-20.635-98.031-13.791-30.901-33.563-57.966-58.759-80.431-2.969-2.646-3.229-7.199-.582-10.168 2.645-2.967 7.196-3.23 10.168-.582 26.727 23.829 47.698 52.536 62.331 85.324 14.521 32.713 21.879 67.661 21.879 103.888 0 35.914-7.359 70.683-21.874 103.339-14.587 32.734-35.557 61.456-62.331 85.375C408.09 446.656 406.376 447.26 404.669 447.26z"></path><path fill="currentColor" d="M354.951,409.056c-1.979,0-3.95-0.811-5.373-2.402c-2.65-2.966-2.395-7.519,0.571-10.169
				c19.844-17.733,35.363-38.997,46.128-63.199c10.766-24.256,16.226-50.036,16.226-76.619c0-26.888-5.459-52.8-16.226-77.016
				c-10.751-24.171-26.273-45.451-46.135-63.249c-2.962-2.654-3.212-7.207-0.558-10.169c2.654-2.963,7.207-3.213,10.169-0.558
				c21.385,19.162,38.101,42.082,49.684,68.123c11.591,26.07,17.468,53.951,17.468,82.868c0,28.609-5.876,56.355-17.466,82.468
				c-11.601,26.082-28.318,48.989-49.692,68.091C358.373,408.452,356.658,409.056,354.951,409.056z"></path></svg>
